<svg width="452" height="191" viewBox="0 0 452 191" fill="none" xmlns="http://www.w3.org/2000/svg">
<rect width="190.574" height="190.574" rx="95.2869" fill="white"/>
<g clip-path="url(#clip0_41_1517)">
<path d="M140.77 76.3357V64.9649L125.609 49.8039H49.8039V76.3357H99.0771L49.8039 119.923L68.3761 140.77L116.133 97.182L114.238 98.8876V140.77H140.77V117.839L116.133 97.182L140.77 76.3357Z" fill="#1E1E1E"/>
</g>
<path d="M164.284 130V60.1818H181.159V89.7045H182.08L205.159 60.1818H225.034L200.284 91.3409L225.477 130H205.295L187.909 102.557L181.159 111.08V130H164.284ZM246.793 130H228.656L252.213 60.1818H274.679L298.236 130H280.099L263.702 77.7727H263.156L246.793 130ZM244.372 102.523H282.281V115.341H244.372V102.523ZM305.753 130V60.1818H334.594C339.821 60.1818 344.332 61.125 348.128 63.0114C351.946 64.875 354.889 67.5568 356.957 71.0568C359.026 74.5341 360.06 78.6591 360.06 83.4318C360.06 88.2727 359.003 92.3864 356.889 95.7727C354.776 99.1364 351.776 101.705 347.889 103.477C344.003 105.227 339.401 106.102 334.082 106.102H315.844V92.8068H330.946C333.491 92.8068 335.616 92.4773 337.321 91.8182C339.048 91.1364 340.355 90.1136 341.241 88.75C342.128 87.3636 342.571 85.5909 342.571 83.4318C342.571 81.2727 342.128 79.4886 341.241 78.0795C340.355 76.6477 339.048 75.5795 337.321 74.875C335.594 74.1477 333.469 73.7841 330.946 73.7841H322.628V130H305.753ZM345.06 98.0909L362.446 130H344.037L326.991 98.0909H345.06ZM386.19 60.1818V130H369.315V60.1818H386.19ZM396.545 130V120.386L430.466 73.8864H396.58V60.1818H451.807V69.7955L417.886 116.295H451.773V130H396.545Z" fill="black"/>
<defs>
<clipPath id="clip0_41_1517">
<rect width="90.9659" height="90.9659" fill="white" transform="translate(49.8039 49.8039)"/>
</clipPath>
</defs>
</svg>
